<svg width="16" height="16" viewBox="0 0 16 16" fill="none" xmlns="http://www.w3.org/2000/svg">
<path d="M7.01861 10.4031L6.65861 7.48714L6.74861 7.39714C8.96861 7.31314 10.0786 6.62914 10.0786 5.34514C10.0786 4.82914 9.89261 4.41514 9.52061 4.10314C9.14861 3.79114 8.64461 3.63514 8.00861 3.63514C6.94061 3.63514 5.96261 4.10914 5.07461 5.05714L3.72461 3.61714C4.90061 2.28514 6.34661 1.61914 8.06261 1.61914C9.33461 1.61914 10.3546 1.95514 11.1226 2.62714C11.8906 3.28714 12.2746 4.18114 12.2746 5.30914C12.2746 6.37714 11.9446 7.20514 11.2846 7.79314C10.6246 8.36914 9.74861 8.75314 8.65661 8.94514L8.47661 10.4031H7.01861ZM6.49661 14.3811V11.9151H8.90861V14.3811H6.49661Z" fill="white"/>
</svg>
