<svg width="16" height="16" viewBox="0 0 16 16" xmlns="http://www.w3.org/2000/svg">
<path d="M7.35488 2.07142C7.59353 1.49764 8.40635 1.49764 8.645 2.07142L9.8144 4.88299C9.91501 5.12488 10.1425 5.29016 10.4036 5.31109L13.439 5.55444C14.0584 5.6041 14.3096 6.37714 13.8376 6.78141L11.525 8.7624C11.3261 8.93283 11.2392 9.20025 11.3 9.45508L12.0065 12.4171C12.1507 13.0215 11.4931 13.4993 10.9628 13.1754L8.3641 11.5881C8.14053 11.4516 7.85935 11.4516 7.63577 11.5881L5.0371 13.1754C4.50677 13.4993 3.84919 13.0215 3.99338 12.4171L4.69991 9.45508C4.7607 9.20025 4.67381 8.93283 4.47485 8.7624L2.16224 6.78141C1.69029 6.37713 1.94147 5.6041 2.56091 5.55444L5.59625 5.31109C5.85739 5.29016 6.08487 5.12488 6.18548 4.88299L7.35488 2.07142Z"/>
</svg>
