<svg width="32" height="32" viewBox="0 0 32 32" fill="none" xmlns="http://www.w3.org/2000/svg">
<circle cx="16" cy="16" r="16" fill="white"/>
<path d="M16.6252 21C11.842 21 9.11368 17.6216 9 12H11.396C11.4747 16.1261 13.2411 17.8739 14.6402 18.2342V12H16.8963V15.5586C18.278 15.4054 19.7295 13.7838 20.2192 12H22.4753C22.2908 12.9251 21.923 13.8011 21.3948 14.573C20.8667 15.345 20.1896 15.9964 19.406 16.4865C20.2807 16.9343 21.0534 17.5681 21.6729 18.3461C22.2924 19.1241 22.7447 20.0287 23 21H20.5166C20.2874 20.1563 19.8216 19.4011 19.1776 18.829C18.5336 18.2568 17.74 17.8932 16.8963 17.7838V21H16.6252V21Z" fill="#22272D"/>
</svg>
