<svg width="65" height="65" viewBox="0 0 65 65" fill="none" xmlns="http://www.w3.org/2000/svg">
<path d="M32.5 65C50.4493 65 65 50.4493 65 32.5C65 14.5507 50.4493 0 32.5 0C14.5507 0 0 14.5507 0 32.5C0 50.4493 14.5507 65 32.5 65Z" fill="#FC3F1D"/>
<path d="M37.5982 52.8125H44.6843V12.1875H34.3706C23.998 12.1875 18.5573 17.4972 18.5573 25.3409C18.5573 32.112 22.0846 35.9298 28.3327 40.0766L32.1291 42.5821L27.2561 38.4952L17.6006 52.8125H25.2828L35.5975 37.4217L32.0103 35.035C27.6756 32.112 25.5529 29.8452 25.5529 24.9234C25.5529 20.5989 28.6029 17.6759 34.4011 17.6759H37.5698V52.8125H37.6003H37.5982Z" fill="white"/>
</svg>
