<svg width="32" height="32" viewBox="0 0 32 32" fill="none" xmlns="http://www.w3.org/2000/svg">
<path d="M16 32C24.8366 32 32 24.8366 32 16C32 7.16344 24.8366 0 16 0C7.16344 0 0 7.16344 0 16C0 24.8366 7.16344 32 16 32Z" fill="#FC3F1D"/>
<path d="M18.51 26H21.9985V6H16.921C11.8145 6 9.13604 8.614 9.13604 12.4755C9.13604 15.809 10.8725 17.6885 13.9485 19.73L15.8175 20.9635L13.4185 18.9515L8.66504 26H12.447L17.525 18.423L15.759 17.248C13.625 15.809 12.58 14.693 12.58 12.27C12.58 10.141 14.0815 8.702 16.936 8.702H18.496V26H18.511H18.51Z" fill="white"/>
</svg>
